<svg width="5000" height="3002" viewBox="0 0 5000 3002" fill="none" xmlns="http://www.w3.org/2000/svg">
<path d="M0 0.0744335H4999.82V3000.36H0V0.0744335Z" fill="#020617"/>
<path d="M4993.21 0.0744335C4995.42 6.11428 4997.62 12.1675 4999.82 18.2073V0.0744335H4993.21ZM4940.89 0.0744335C4960.56 54.0064 4980.22 107.912 4999.82 161.684V103.379H4999.85C4987.3 68.9795 4974.74 34.5269 4962.17 0.0744335H4962.21H4940.89ZM4888.56 0.0744335C4925.84 102.272 4963.04 204.283 4999.82 305.32V246.961H4999.85C4970.02 165.07 4939.96 82.6324 4909.85 0.0744335H4909.88H4888.56ZM4836.24 0.0744335C4891.37 151.244 4946.26 301.84 4999.82 449.317V390.838H4999.85C4953.08 262.135 4905.4 131.324 4857.52 0.0744335H4857.55H4836.24ZM4783.91 0.0744335C4857.31 201.336 4930.13 401.238 4999.82 593.819V535.168H4999.85C4936.69 360.826 4871.17 181.003 4805.19 0.0744335H4805.23H4783.91ZM4731.57 0.0744335C4823.81 253.015 4914.92 503.302 4999.82 739.083V680.177H4999.85C4921.1 461.876 4837.47 232.109 4752.87 0.0744335H4752.89H4731.57ZM4679.24 0.0744335C4791.11 306.88 4900.98 609.059 4999.82 885.372V826.134H4999.85C4906.69 566.247 4804.48 285.187 4700.54 0.0744335H4700.56H4679.24ZM4626.91 0.0744335C4759.51 363.812 4888.86 719.976 4999.82 1033.08V973.37H4999.85C4893.88 675.244 4772.48 341.026 4648.2 0.0744335H4648.23H4626.91ZM4574.58 0.0744335C4729.46 425.037 4879.29 838.213 4999.82 1182.76V1122.41H4999.85C4883.33 790.761 4741.87 400.731 4595.86 0.0744335H4595.89H4574.58ZM4522.23 0.0744335C4701.68 492.595 4873.55 967.317 4999.82 1335.36V1274.02H4999.85C4876.13 915.811 4713.27 465.996 4543.53 0.0744335H4543.55H4522.23ZM4469.9 0.0744335C4672.47 556.247 4864.29 1087.18 4990.38 1464.26C4993.57 1473.81 4996.72 1483.25 4999.82 1492.61V1429.61H4999.85C4874.18 1055.83 4687.83 539.981 4491.18 0.0744335H4491.21H4469.9ZM4417.56 0.0744335C4615.82 544.581 4802.71 1062.39 4926.38 1432.27C4955.4 1519.04 4980.88 1597.45 4999.82 1669.94V1596.14H4999.85C4984.02 1542.72 4965.52 1486.24 4945.34 1425.92C4822.11 1057.37 4636.18 542.074 4438.84 0.0744335H4438.86H4417.56ZM4999.79 2969.43C4982.5 2979.67 4964.89 2989.98 4946.98 3000.36H4986.68C4991.06 2997.78 4995.43 2995.21 4999.79 2992.64L4999.82 2992.64V2969.43H4999.79ZM4999.79 2898.97C4945.58 2932.05 4887.93 2965.87 4827.17 3000.36H4867.49C4913.5 2973.95 4957.66 2947.94 4999.79 2922.37L4999.82 2922.37V2898.97H4999.79ZM4999.79 2827.23C4911.9 2882.8 4813.45 2940.65 4706.24 3000.36H4747.16C4838.39 2949.03 4923 2899.12 4999.79 2850.86H4999.82V2827.23H4999.79ZM4999.79 2753.91C4882.01 2831.63 4741.75 2914.15 4584.3 3000.36H4625.76C4765.96 2922.89 4891.94 2848.44 4999.79 2777.83L4999.82 2777.84V2753.91H4999.79ZM4999.79 2678.6C4856.71 2778.08 4673.26 2886.17 4461.37 3000.36H4503.37C4696.64 2895.31 4865.25 2795.49 4999.79 2702.92H4999.82V2678.6H4999.79ZM4999.79 2600.68C4997.85 2602.12 4995.89 2603.57 4993.93 2605.01C4831.68 2724.71 4605.43 2858.08 4337.56 3000.36H4380.04C4631.04 2865.98 4844 2739.68 4999.79 2625.52L4999.82 2625.53V2600.68H4999.79ZM4999.79 2519.14C4977.96 2536.8 4954.69 2554.75 4929.93 2573.02C4755.57 2701.64 4507.31 2846.06 4212.91 3000.36H4255.84C4536.35 2852.27 4773.31 2713.41 4941.8 2589.11C4962.1 2574.13 4981.42 2559.35 4999.79 2544.76H4999.82V2519.14H4999.79ZM4999.79 2432.43C4961.09 2467.55 4916.66 2503.6 4865.93 2541.02C4679.58 2678.49 4408.8 2834.01 4087.47 3000.36H4130.83C4438.02 2840.26 4697.23 2690.33 4877.8 2557.11C4923.29 2523.55 4963.82 2491.02 4999.79 2459.21H4999.82V2432.43H4999.79ZM4999.79 2337.71V2337.71C4948.48 2392.51 4883.3 2448.99 4801.93 2509.02C4603.68 2655.27 4309.87 2821.95 3961.3 3000.36H4005.07C4339.28 2828.22 4621.24 2667.17 4813.8 2525.12C4888.64 2469.91 4950.05 2417.48 4999.79 2366.51H4999.82V2337.71H4999.79ZM4999.79 2228.55C4942.73 2307.67 4857.96 2388.48 4737.93 2477.02C4527.87 2631.99 4210.53 2809.88 3834.45 3000.36H3878.6C4240.13 2816.18 4545.37 2643.93 4749.8 2493.12C4860.69 2411.31 4942.12 2335.6 4999.79 2261.7H4999.82V2228.55H4999.79ZM4999.79 2082.75C4952.21 2199.64 4851.76 2313.84 4673.94 2445.02C4452.16 2608.63 4110.79 2797.8 3706.96 3000.36H3751.47C4140.56 2804.13 4469.57 2620.64 4685.8 2461.12C4846.63 2342.47 4945.45 2236.66 4999.79 2130.58H4999.82V2082.75H4999.79ZM4365.2 0.0744335C4559.13 532.821 4741.12 1037.65 4862.39 1400.27C5012.62 1849.54 5068.31 2074.86 4609.94 2413.02C4376.52 2585.22 4010.63 2785.72 3578.87 3000.36H3623.71C4040.59 2792.08 4393.86 2597.28 4621.8 2429.12C5090.7 2083.2 5032.62 1846.31 4881.34 1393.92C4760.53 1032.62 4579.49 530.315 4386.49 0.0744335H4386.52H4365.2ZM4312.85 0.0744335C4502.39 521.008 4679.56 1012.93 4798.39 1368.27C4948.62 1817.54 5004.31 2042.87 4545.94 2381.03C4300.96 2561.75 3910.05 2773.66 3450.23 3000.36H3495.38C3940.21 2780.04 4318.23 2573.87 4557.81 2397.12C5026.7 2051.21 4968.62 1814.31 4817.35 1361.92C4698.98 1007.93 4522.75 518.488 4334.13 0.0744335H4334.16H4312.85ZM4260.49 0.0744335C4445.64 509.115 4618 988.223 4734.39 1336.27C4884.62 1785.55 4940.32 2010.87 4481.94 2349.03C4225.47 2538.23 3809.06 2761.61 3321.08 3000.36H3366.52C3839.4 2768.01 4242.65 2550.4 4493.81 2365.12C4962.7 2019.21 4904.62 1782.31 4753.35 1329.92C4637.42 983.21 4465.98 506.595 4281.77 0.0744335H4281.8H4260.49ZM4208.13 0.0744335C4388.85 497.155 4556.45 963.53 4670.39 1304.27C4820.63 1753.55 4876.32 1978.87 4417.94 2317.03C4150.04 2514.66 3707.64 2749.58 3191.44 3000.36H3237.15C3738.16 2756 4167.16 2526.88 4429.81 2333.12C4898.7 1987.21 4840.63 1750.31 4689.35 1297.92C4575.86 958.53 4409.2 494.635 4229.41 0.0744335H4229.44H4208.13ZM4155.76 0.0744335C4332.03 485.142 4494.9 938.838 4606.39 1272.27C4756.63 1721.55 4812.32 1946.87 4353.94 2285.03C4074.69 2491.04 3605.79 2737.58 3061.35 3000.36H3107.31C3636.48 2744.02 4091.74 2503.32 4365.81 2301.12C4834.71 1955.21 4776.63 1718.31 4625.35 1265.92C4514.31 933.864 4352.37 482.622 4177.04 0.0744335H4177.07H4155.76ZM4103.39 0.0744335C4275.19 473.076 4433.36 914.198 4542.39 1240.27C4692.63 1689.55 4748.32 1914.87 4289.95 2253.02C3999.38 2467.39 3503.51 2725.62 2930.86 3000.36H2977.05C3534.39 2732.07 4016.35 2479.71 4301.81 2269.12C4770.71 1923.2 4712.63 1686.31 4561.35 1233.92C4452.77 909.212 4295.52 470.543 4124.67 0.0744335H4124.68H4103.39ZM4051.02 0.0744335C4218.31 460.943 4371.81 889.559 4478.39 1208.27C4628.63 1657.55 4684.32 1882.87 4225.95 2221.02C3924.12 2443.69 3400.78 2713.69 2799.97 3000.36H2846.37C3431.85 2720.16 3941.04 2456.06 4237.81 2237.12C4706.71 1891.2 4648.63 1654.31 4497.35 1201.92C4391.25 884.585 4238.64 458.41 4072.29 0.0744335H4072.31H4051.02ZM3998.62 0.0744335C4161.4 448.757 4310.29 864.946 4414.4 1176.27C4564.63 1625.55 4620.32 1850.87 4161.95 2189.02C3848.92 2419.96 3297.62 2701.81 2668.73 3000.36H2715.33C3328.85 2708.29 3865.76 2432.38 4173.82 2205.12C4642.71 1859.21 4584.63 1622.31 4433.36 1169.93C4329.72 859.986 4181.74 446.21 4019.9 0.0744335H4019.93H3998.62ZM3946.23 0.0744335C4104.46 436.517 4248.77 840.36 4350.4 1144.27C4500.63 1593.55 4556.33 1818.87 4097.95 2157.03C3773.76 2396.2 3194 2689.98 2537.18 3000.36H2583.95C3225.41 2696.47 3790.53 2408.67 4109.82 2173.12C4578.71 1827.21 4520.63 1590.31 4369.36 1137.93C4268.2 835.4 4124.79 433.97 3967.5 0.0744335H3967.53H3946.23ZM3893.84 0.0744335C4047.5 424.237 4187.27 815.814 4286.4 1112.27C4436.64 1561.56 4492.33 1786.87 4033.95 2125.03C3698.64 2372.4 3089.92 2678.2 2405.31 3000.36H2452.26C3121.51 2684.7 3715.35 2384.92 4045.82 2141.12C4514.71 1795.21 4456.64 1558.32 4305.36 1105.93C4206.69 810.854 4067.83 421.691 3915.1 0.0744335H3915.12H3893.84ZM3841.42 0.0744335C3990.53 411.904 4125.76 791.268 4222.4 1080.27C4372.64 1529.56 4428.33 1754.87 3969.95 2093.03C3623.55 2348.58 2985.39 2666.48 2273.18 3000.36H2320.28C3017.15 2672.99 3640.2 2361.15 3981.82 2109.12C4450.72 1763.21 4392.64 1526.32 4241.36 1073.93C4145.19 786.321 4010.85 409.358 3862.69 0.0744335H3862.72H3841.42ZM3789 0.0744335C3933.53 399.544 4064.27 766.775 4158.4 1048.27C4308.64 1497.56 4364.33 1722.87 3905.96 2061.03C3548.51 2324.73 2880.38 2654.82 2140.8 3000.36H2188.04C2912.31 2661.34 3565.1 2337.34 3917.82 2077.13C4386.72 1731.21 4328.64 1494.32 4177.36 1041.93C4083.71 761.842 3953.83 396.985 3810.26 0.0744335H3810.29H3789ZM3736.57 0.0744335C3876.49 387.131 4002.79 742.296 4094.4 1016.28C4244.64 1465.56 4300.33 1690.87 3841.96 2029.03C3473.49 2300.86 2774.89 2643.24 2008.2 3000.36H2055.56C2807 2649.76 3490.01 2313.52 3853.82 2045.13C4322.72 1699.21 4264.64 1462.32 4113.36 1009.93C4022.23 737.376 3896.81 384.585 3757.84 0.0744335H3757.87H3736.57ZM3684.15 0.0744335C3819.45 374.692 3941.33 717.87 4030.41 984.276C4180.64 1433.56 4236.33 1658.87 3777.96 1997.03C3398.5 2276.97 2668.92 2631.73 1875.42 3000.36H1922.87C2701.19 2638.26 3414.95 2289.68 3789.83 2013.13C4258.72 1667.21 4200.64 1430.32 4049.37 977.93C3960.77 712.963 3839.76 372.145 3705.4 0.0744335H3705.43H3684.15ZM3631.7 0.0744335C3762.37 362.225 3879.86 693.47 3966.41 952.277C4116.64 1401.56 4172.34 1626.87 3713.96 1965.03C3323.53 2253.06 2562.44 2620.3 1742.46 3000.36H1790.01C2594.9 2626.84 3339.93 2265.82 3725.83 1981.13C4194.72 1635.21 4136.64 1398.32 3985.37 945.931C3899.32 688.577 3782.69 359.665 3652.96 0.0744335H3652.98H3631.7ZM3579.24 0.0744335C3705.29 349.719 3818.42 669.124 3902.41 920.278C4052.65 1369.56 4108.34 1594.87 3649.96 1933.03C3248.59 2229.14 2455.47 2608.96 1609.36 3000.36H1656.99C2488.08 2615.5 3264.92 2241.94 3661.83 1949.13C4130.72 1603.21 4072.64 1366.32 3921.37 913.931C3837.88 664.231 3725.6 347.159 3600.5 0.0744335H3600.51H3579.24ZM3526.77 0.0744335C3648.19 337.199 3757 644.805 3838.41 888.279C3988.65 1337.56 4044.34 1562.88 3585.96 1901.03C3173.65 2205.21 2347.99 2597.71 1476.12 3000.36H1523.82C2380.77 2604.25 3189.93 2218.05 3597.83 1917.13C4066.73 1571.21 4008.65 1334.32 3857.37 881.932C3776.45 639.925 3668.5 334.639 3548.03 0.0744335H3548.04H3526.77ZM3474.29 0.0744335C3591.07 324.653 3695.57 620.539 3774.41 856.28C3924.65 1305.56 3980.34 1530.88 3521.97 1869.03C3098.74 2181.26 2240 2586.55 1342.79 3000.36H1390.54C2272.93 2593.1 3114.95 2194.15 3533.83 1885.13C4002.73 1539.21 3944.65 1302.32 3793.37 849.933C3715.04 615.659 3611.38 322.093 3495.54 0.0744335H3495.55H3474.29ZM3421.79 0.0744335C3533.93 312.093 3634.18 596.313 3710.41 824.28C3860.65 1273.56 3916.34 1498.88 3457.97 1837.03C3023.83 2157.3 2131.45 2575.5 1209.37 3000.36H1257.16C2164.56 2582.06 3039.99 2170.24 3469.83 1853.13C3938.73 1507.21 3880.65 1270.32 3729.37 817.934C3653.64 591.459 3554.23 309.547 3443.05 0.0744335H3443.06H3421.79ZM3369.29 0.0744335C3476.78 299.52 3572.79 572.127 3646.42 792.281C3796.65 1241.56 3852.34 1466.88 3393.97 1805.03C2948.95 2133.34 2022.38 2564.55 1075.9 3000.36H1123.71C2055.64 2571.11 2965.03 2146.33 3405.84 1821.13C3874.73 1475.21 3816.65 1238.32 3665.38 785.935C3592.27 567.287 3497.09 296.974 3390.54 0.0744335H3390.56H3369.29ZM3316.77 0.0744335C3419.61 286.934 3511.43 547.994 3582.42 760.282C3732.65 1209.56 3788.35 1434.88 3329.97 1773.04C2874.06 2109.38 1912.74 2553.72 942.393 3000.36H990.221C1946.16 2560.28 2890.09 2122.41 3341.84 1789.13C3810.73 1443.21 3752.65 1206.32 3601.38 753.936C3530.9 543.167 3439.91 284.387 3338.01 0.0744335H3338.04H3316.77Z" fill="#0F172A"/>
</svg>
