<svg xmlns="http://www.w3.org/2000/svg" width="338.867" height="53.733"><path d="M8.535 283.156s88.211-16.289 206.211-36.301c309.852-52.546 879.634-140.878 1079.544-117.359 93.51 10.945 137.44 38.899 161.35 62.02 10.4 10.019 25 29.507 32.91 34.539 7.03 5.191 17.17 7.785 31.03 7.343 13.78-.394 35.94-2.832 35.94-2.832L1406.13 0 0 251.566l8.535 31.59" style="fill:#0e2751;fill-opacity:1;fill-rule:nonzero;stroke:none" transform="matrix(.13333 0 0 -.13333 0 53.733)"/><path d="M2533.05 119.875s-35.18 6.508-84.06 15.137c-248.22 43.926-971.1 165.633-1201.7 138.562-93.53-11.023-137.45-38.972-161.37-62.054-10.38-10.063-24.95-29.59-32.86-34.5-7.11-5.27-17.21-7.829-31.03-7.43-13.82.48-36.022 2.793-36.022 2.793L1135.4 402.988l1406.11-251.566-8.46-31.547" style="fill:#0e2751;fill-opacity:1;fill-rule:nonzero;stroke:none" transform="matrix(.13333 0 0 -.13333 0 53.733)"/></svg>